<svg xmlns="http://www.w3.org/2000/svg" viewBox="0 0 120 120" fill="none">
  <circle cx="60" cy="60" r="56" fill="#F8F4EF" />
  <path
    d="M74.5 24.5c-12.8 5.7-21.8 18.3-21.8 33.1 0 16 10.5 29.5 25 34.1-5.2 2.5-11.1 3.9-17.4 3.9-22.7 0-41.2-17.8-41.2-39.8S37.6 16 60.3 16c5 0 9.8.9 14.2 2.5Z"
    fill="#0F0D0C"
  />
  <path
    d="M63.8 52.6c1.2-2.4 3.4-4 5.9-4 1.6 0 2.9.5 3.8 1.8.7 1 .9 2.5.4 3.8l-1.8 5 3.8 8.1c1.2 2.5.2 5.4-2.2 6.8L67 78.1c-2.1 1.2-4.8.8-6.5-.9l-2.5-2.6c-1.7-1.7-1.9-4.3-.5-6.2l4.5-6.3-1.3-5.6c-.4-1.4-.1-2.8.8-3.9 1.2-1.4 2.7-2 4.3-2Z"
    fill="#0F0D0C"
  />
  <circle cx="70" cy="45.4" r="4.1" fill="#0F0D0C" />
  <path
    d="m78.7 25.7 1.9 4.6 4.7 1.8-4.7 1.9-1.9 4.7-1.9-4.7-4.7-1.9 4.7-1.8 1.9-4.6Zm9.6 7.7 1.1 2.6 2.6 1-2.6 1.1-1.1 2.7-1.1-2.7-2.7-1.1 2.7-1 1.1-2.6Z"
    fill="#0F0D0C"
  />
</svg>
